<?xml version="1.0" encoding="UTF-8"?>
<!DOCTYPE svg PUBLIC "-//W3C//DTD SVG 1.1//EN" "http://www.w3.org/Graphics/SVG/1.1/DTD/svg11.dtd">
<!-- Creator: CorelDRAW 2020 (64-Bit) -->
<svg xmlns="http://www.w3.org/2000/svg" xml:space="preserve" width="1963px" height="2500px" version="1.1" style="shape-rendering:geometricPrecision; text-rendering:geometricPrecision; image-rendering:optimizeQuality; fill-rule:evenodd; clip-rule:evenodd"
viewBox="0 0 1963 2500.35"
 xmlns:xlink="http://www.w3.org/1999/xlink"
 xmlns:xodm="http://www.corel.com/coreldraw/odm/2003">
 <defs>
  <style type="text/css">
   <![CDATA[
    .fil0 {fill:white;fill-rule:nonzero}
   ]]>
  </style>
 </defs>
 <g id="Capa_x0020_1">
  <metadata id="CorelCorpID_0Corel-Layer"/>
  <g id="_2348281408656">
   <g>
    <path class="fil0" d="M271.19 2011.22c-25.56,28.39 -44.64,61.05 -55.32,94.09 -7.47,23.27 -11.06,46.24 -11.06,67.76 0,13.12 1.3,25.63 4.12,37.46 2.14,8.78 5.03,17.17 8.92,24.88 2.91,5.87 6.42,11.44 10.53,16.48 6.19,7.48 13.81,13.96 22.9,18.46 9,4.59 19.38,7.03 29.91,6.95l0 -47.69c-2.21,0 -3.89,-0.31 -5.5,-0.77 -2.82,-0.76 -5.11,-2.06 -7.7,-4.35 -1.83,-1.75 -3.82,-4.04 -5.65,-7.17 -2.75,-4.5 -5.34,-10.76 -7.09,-18.23 -1.76,-7.56 -2.75,-16.33 -2.75,-26.02 0,-16.1 2.82,-34.42 8.77,-53.19 5.57,-17.24 14.42,-35.1 26.02,-52.04 17.32,-25.49 40.98,-48.75 68.29,-65.39 13.58,-8.32 28.23,-15.03 43.42,-19.62 15.26,-4.58 31.21,-7.02 47.69,-7.02 21.98,0 43.04,4.43 62.73,12.36 29.45,11.75 56.08,31.51 77.37,55.09 21.21,23.51 37.01,50.82 45.25,76.61 6.03,18.78 8.85,37.09 8.85,53.19 0,9.84 -1.07,18.77 -2.9,26.33 -1.3,5.64 -3.13,10.68 -5.11,14.65 -1.53,3.05 -3.13,5.49 -4.81,7.55 -2.44,2.98 -4.88,4.88 -7.24,6.11 -2.44,1.14 -4.96,1.83 -8.63,1.9l0 47.7c6.26,0.07 12.44,-0.84 18.32,-2.45 10.3,-2.82 19.53,-8.16 27.08,-15.1 5.65,-5.2 10.38,-11.14 14.27,-17.63 5.96,-9.77 10.08,-20.6 12.75,-32.2 2.66,-11.6 3.97,-23.96 3.97,-36.86 0,-21.51 -3.59,-44.56 -11.07,-67.75 -7.1,-22.06 -17.93,-43.88 -31.97,-64.41 -21.06,-30.75 -49.15,-58.68 -82.87,-79.27 -16.86,-10.23 -35.1,-18.63 -54.56,-24.42 -19.45,-5.96 -40.06,-9.16 -61.42,-9.16 -28.46,0 -55.63,5.8 -80.43,15.79 -37.32,14.96 -69.52,39.07 -95.08,67.38z"/>
    <path class="fil0" d="M540.01 2207.85c-7.78,6.19 -12.36,15.49 -12.36,25.49l0 38.54c0,9.91 4.58,19.3 12.36,25.48 7.79,6.11 18.01,8.4 27.62,6.11l25.72 -6.11 0 -89.58 -25.72 -6.1c-9.61,-2.29 -19.83,0 -27.62,6.17z"/>
    <path class="fil0" d="M325.75 2201.68l-25.79 6.1 0 89.58 25.79 6.11c9.62,2.29 19.84,0 27.62,-6.11 7.79,-6.18 12.36,-15.57 12.36,-25.48l0 -38.54c0,-10 -4.58,-19.3 -12.36,-25.49 -7.78,-6.18 -18,-8.46 -27.62,-6.17z"/>
    <path class="fil0" d="M1945.76 2097.9c-9.85,-36.77 -23.73,-69.74 -40.82,-99.04 -29.99,-51.5 -69.67,-91.56 -113.46,-123.31 -32.89,-23.8 -67.99,-43.26 -103.7,-59.97 -53.49,-25.03 -108.2,-44.26 -158.71,-62.95 -50.52,-18.62 -96.68,-36.86 -132.62,-58.07 -13.13,-7.79 -24.95,-15.87 -35.17,-24.34 -15.26,-12.74 -27.17,-26.33 -35.79,-41.51 -8.62,-15.18 -14.42,-32.27 -16.63,-53.64 -1.61,-15.26 -2.29,-29.61 -2.29,-43.34 0,-40.44 5.95,-75.46 13.58,-111.25 22.58,-25.49 43.26,-55.86 62.79,-92.17 19.62,-36.55 38.23,-79.21 56.77,-129.72 11.91,-5.42 23.89,-11.91 35.56,-19.84 26.71,-17.86 52.04,-42.89 73.17,-76.23 21.07,-33.34 38,-74.78 49.6,-125.9 3.2,-14.19 4.73,-28.31 4.73,-42.2 0.08,-29 -6.79,-56.62 -18.31,-81.34 -8.01,-17.17 -18.16,-32.88 -29.99,-47.15 6.03,-22.29 13.35,-52.27 19.91,-87.37 9.01,-48.76 16.49,-107.36 16.49,-168.94 0,-39.76 -3.13,-80.81 -11.22,-121.32 -6.03,-30.38 -14.96,-60.52 -27.47,-89.36 -18.85,-43.42 -46.24,-84.24 -84.32,-117.96 -35.25,-31.21 -79.43,-56.08 -132.77,-72.03 -18.84,-22.59 -37.77,-41.82 -57.15,-58.15 -16.79,-14.04 -33.95,-25.86 -51.51,-35.55 -26.4,-14.65 -53.71,-24.34 -81.72,-30.22 -28,-5.88 -56.54,-8.02 -86.14,-8.02 -40.83,0 -83.79,4.05 -131.25,8.7 -17.93,1.83 -32.96,4.05 -46.01,6.34 -19.46,3.51 -34.03,7.09 -45.7,9.46 -5.88,1.14 -10.99,2.06 -16.03,2.67 -5.03,0.53 -9.91,0.92 -15.49,0.92 -7.47,0 -16.1,-0.61 -27.39,-2.21 -34.56,-5.04 -66.15,-12.82 -90.95,-20.46 -12.36,-3.74 -23.05,-7.47 -31.44,-10.68 -4.2,-1.6 -7.86,-3.05 -10.76,-4.27 -2.97,-1.22 -5.19,-2.37 -6.48,-2.98l0.07 0.08c-3.81,-1.98 -7.47,-3.05 -10.75,-3.66 -3.29,-0.77 -6.18,-0.92 -8.7,-0.92 -5.27,0 -9.01,0.76 -11.98,1.53 -2.98,0.77 -5.27,1.68 -7.33,2.52 -3.97,1.6 -7.02,3.28 -10.07,5.11 -5.57,3.36 -10.91,7.1 -16.56,11.45 -9.85,7.63 -20.68,17.09 -32.2,28.23 -17.25,16.63 -35.72,36.78 -52.5,58.75 -8.4,10.91 -16.25,22.36 -23.35,34.19 -7.09,11.82 -13.35,23.95 -18.31,36.7 -24.27,63.1 -40.29,121.25 -50.21,174.89 -10,53.64 -13.81,102.78 -13.81,147.88 0,73.78 10.3,136.35 20.22,189.23 0,2.52 0.08,4.88 0.23,7.4 0.31,4.97 0.84,10.08 1.38,15.42 0.84,7.93 1.75,16.1 2.44,22.96 0.38,3.44 0.69,6.49 0.92,8.86 0.07,1.14 0.15,2.21 0.15,2.97l0.07 0.76 0 0.23 0 0.08 0 4.5 9.69 43.11c-13.96,15.27 -26.02,32.36 -35.4,51.13 -13.13,26.1 -20.91,55.55 -20.91,86.68 0,13.74 1.6,27.93 4.81,42.04 7.63,34.11 17.78,63.87 29.91,89.82 18.16,38.99 41.21,69.28 66.69,92.02 19.76,17.7 40.9,30.6 61.8,40.14 18.47,50.51 37.09,93.09 56.69,129.64 19.54,36.39 40.14,66.68 62.73,92.17 7.63,35.79 13.58,70.89 13.66,111.33 0,13.74 -0.77,28.08 -2.37,43.34 -1.53,14.65 -4.73,27.32 -9.38,38.76 -6.95,17.1 -17.1,31.67 -30.91,45.48 -13.81,13.59 -31.44,26.33 -52.26,38.16 -21.14,11.98 -45.64,23.2 -72.26,33.88 -46.71,18.92 -99.96,36.78 -153.91,58.37 -40.44,16.1 -81.42,34.49 -120.49,57.46 -29.3,17.24 -57.46,37.24 -83.4,60.97 -38.83,35.55 -72.33,79.88 -95.45,134.67 -23.2,54.86 -36.1,119.8 -36.02,196.56 0,10.84 2.29,21.14 6.03,30.67 3.43,8.93 8.24,17.1 13.88,24.88 10.69,14.5 24.42,27.47 41.29,39.99 29.6,21.82 68.9,42.27 119.79,61.5 76.31,28.77 178.56,54.63 310.79,73.4 132.16,18.77 294.31,30.52 489.64,30.52 169.47,0 313.84,-8.77 435.39,-23.35 91.11,-10.98 169.47,-25.17 235.94,-41.43 49.9,-12.13 93.16,-25.48 130.25,-39.52 27.78,-10.53 52.19,-21.52 73.4,-32.82 15.87,-8.46 29.91,-17.17 42.35,-26.09 18.62,-13.51 33.58,-27.39 44.94,-43.19 5.73,-7.86 10.38,-16.25 13.81,-25.41 3.44,-9.01 5.5,-18.93 5.5,-29.15 0,-52.51 -6.02,-99.44 -17.24,-141.49zm-616.23 -349.16l-244.93 382.51 -27.32 -187.79 69.51 -73.56 -45.02 -75.08 189.99 -99.88c5.27,6.79 10.84,13.2 16.72,19.3 12.59,12.9 26.4,24.27 41.05,34.5zm-704.14 -1323.12c220.83,48.99 652.63,-44.64 652.63,-44.64 0,0 4.66,107.06 78.29,205.34 29,38.61 52.88,98.97 70.81,156.35 -4.8,-8.93 -16.1,-12.29 -32.96,-14.42 -37.85,-5.12 -94.09,-8.4 -157.41,-5.35 -188.17,9.24 -174.21,26.33 -248.07,26.33 -73.86,0 -59.9,-17.09 -248.07,-26.33 -63.33,-3.05 -119.56,0.23 -157.49,5.35 -19.68,2.59 -32.05,6.56 -34.87,19.68 -0.99,4.89 -2.52,10.38 -9.31,13.05 20.84,-77.83 78.83,-177.25 86.45,-335.36zm765.94 436.16c0,1.07 -0.76,108.96 -74.17,145.82 -24.95,12.59 -56.23,19.53 -88.05,19.61 -33.57,0 -64.24,-7.64 -88.74,-22.06 -27.09,-15.87 -45.32,-39.44 -54.25,-69.89 -2.14,-7.1 -4.04,-14.2 -6.03,-21.07 -5.8,-20.98 -21.44,-79.27 11.75,-104.91 21.37,-16.71 87.68,-27.24 151.24,-27.24 57.76,0 116.67,7.86 133.91,25.87 11.37,11.9 15.79,33.11 14.34,53.87zm-494.06 52.42c-1.99,6.86 -3.97,13.96 -6.03,21.06 -8.93,30.44 -27.17,54.03 -54.18,69.9 -24.57,14.42 -55.24,22.05 -88.82,22.05 -31.82,-0.08 -63.02,-7.02 -88.05,-19.61 -73.4,-36.86 -74.09,-144.75 -74.17,-145.82 -1.45,-20.75 2.97,-41.97 14.27,-53.87 17.32,-18.01 76.23,-25.86 133.99,-25.86 63.49,0 129.87,10.53 151.31,27.24 33.12,25.63 17.48,83.92 11.68,104.91zm-245.17 375.34c-19.15,-35.71 -38.23,-80.12 -57.84,-135.52l-6.48 -18.08 -18.01 -6.64c-12.52,-4.58 -24.73,-10.52 -36.4,-18.39 -17.62,-11.83 -34.34,-28 -49.67,-52.11 -15.34,-24.12 -29.07,-56.47 -38.99,-100.19 -1.91,-8.32 -2.67,-16.25 -2.67,-24.04 0,-17.55 4.19,-34.18 12.2,-50.05 6.57,-13.2 15.72,-25.64 26.86,-36.94 18.78,28.39 34.34,50.9 39.99,56.54 10.76,10.76 16.1,0.38 16.94,-19.76 6.64,44.79 27.93,118.73 96.68,155.28 98.97,52.57 246.69,32.88 296.82,-84.16 22.66,-52.81 22.97,-104.39 57.15,-104.39 34.11,0 34.49,51.59 57.15,104.39 50.21,117.05 197.93,136.73 296.9,84.16 98.89,-52.58 99.58,-182.75 99.58,-191.91 0,-4.73 4.5,-8.31 10.91,-9 8.4,35.33 12.74,59.29 12.74,59.29 0,0 9.47,-18.08 23.66,-42.2 8.47,9.92 15.49,20.6 20.67,31.74 6.95,14.96 10.69,30.6 10.69,46.86 0,7.85 -0.84,15.87 -2.75,24.11 -6.56,29.15 -14.88,53.26 -24.19,73.25 -14.04,29.91 -30.22,50.52 -47.15,65.63 -16.87,15.11 -34.88,24.95 -53.57,31.89l-18.08 6.56 -6.42 18.17c-19.61,55.39 -38.76,99.88 -57.91,135.51 -19.23,35.71 -38.3,62.57 -58.14,83.48l-7.86 8.31 -2.44 11.07c-8.85,40.82 -17.7,85.92 -17.7,139.33 0,16.48 0.84,33.65 2.67,51.74 2.21,21.21 7.1,41.13 14.35,59.44 0.3,0.84 0.76,1.75 1.06,2.52l-248.52 130.71 -275.45 -127.81c8.46,-19.84 14.19,-41.51 16.63,-64.86 1.91,-18.08 2.67,-35.25 2.67,-51.73 0.08,-53.42 -8.78,-98.59 -17.7,-139.41l-2.44 -11.07 -7.86 -8.24c-19.77,-21.07 -38.92,-47.77 -58.08,-83.48zm-2.21 446.99c14.35,-11.52 27.55,-24.42 39.22,-38.92l210.07 97.52 -44.87 74.78 69.43 73.56 -25.63 176.79 -267.98 -369.23c6.79,-4.66 13.43,-9.47 19.76,-14.5zm1231.24 502.53c-0.08,0.46 -0.61,1.99 -2.06,4.43 -2.75,4.73 -9.16,12.36 -19.99,21.06 -9.39,7.56 -22.06,16.02 -38,24.73 -28,15.34 -65.93,31.28 -114,46.39 -72.18,22.74 -167.49,43.49 -287.75,58.6 -120.25,14.96 -265.45,24.27 -437.9,24.27 -166.5,0 -307.66,-8.7 -425.48,-22.82 -88.36,-10.61 -163.59,-24.34 -226.31,-39.6 -47.16,-11.52 -87.3,-23.96 -120.64,-36.63 -25.11,-9.46 -46.39,-19.07 -63.87,-28.46 -13.12,-7.02 -24.18,-13.96 -33.19,-20.37 -13.43,-9.62 -21.98,-18.39 -26.25,-24.42 -2.14,-2.9 -3.2,-5.19 -3.58,-6.26 -0.23,-0.46 -0.31,-0.76 -0.31,-0.91 0,-45.79 5.19,-85 14.19,-119.04 7.86,-29.76 18.7,-55.63 31.9,-78.51 23.04,-40.06 53.33,-71.5 89.35,-97.98 26.86,-19.92 57,-36.93 88.89,-52.12 35.79,-17.01 73.79,-31.66 111.94,-45.78l0 82.41 28.61 0 28.62 0 0 -103.54c36.47,-13.66 72.03,-27.7 105.14,-44.49l423.41 583.35 369.92 -577.55c1.15,1.75 2.29,3.51 3.36,5.19 15.42,24.8 26.17,51.81 33.35,82.41 7.09,30.52 10.38,64.71 10.38,102.78 0,88.21 0,165.05 0,216.78l-132.92 0.01 0 57.3 327.19 0 0 -57.31 -132.92 0.01c0,-51.74 0,-128.58 0,-216.79 0,-55.47 -6.33,-105.98 -22.05,-152.07 -1.38,-3.97 -2.83,-7.94 -4.35,-11.83 44.71,17.63 91.48,33.5 136.81,51.51 38.84,15.34 76.53,32.12 110.8,52.04 25.79,14.95 49.67,31.74 70.89,50.81 31.82,28.92 57.91,63.03 76.68,106.75 18.69,43.65 30.14,97.37 30.14,165.65l0 0z"/>
   </g>
  </g>
 </g>
</svg>
