<?xml version="1.0" encoding="UTF-8"?>
<!DOCTYPE svg PUBLIC "-//W3C//DTD SVG 1.1//EN" "http://www.w3.org/Graphics/SVG/1.1/DTD/svg11.dtd">
<!-- Creator: CorelDRAW 2020 (64-Bit) -->
<svg xmlns="http://www.w3.org/2000/svg" xml:space="preserve" width="2500px" height="2126px" version="1.1" style="shape-rendering:geometricPrecision; text-rendering:geometricPrecision; image-rendering:optimizeQuality; fill-rule:evenodd; clip-rule:evenodd"
viewBox="0 0 2685.47 2283.47"
 xmlns:xlink="http://www.w3.org/1999/xlink"
 xmlns:xodm="http://www.corel.com/coreldraw/odm/2003">
 <defs>
  <style type="text/css">
   <![CDATA[
    .fil0 {fill:white;fill-rule:nonzero}
   ]]>
  </style>
 </defs>
 <g id="Capa_x0020_1">
  <metadata id="CorelCorpID_0Corel-Layer"/>
  <g id="_2579811340512">
   <g>
    <path class="fil0" d="M2428.18 0l-2170.89 0c-142.08,0 -257.29,115.2 -257.29,257.29l0 926.65 819.92 0 219.17 343.08 532.93 -1089.8 361.26 746.72 752.19 0 0 -926.65c0,-142.09 -115.2,-257.29 -257.29,-257.29z"/>
    <path class="fil0" d="M1571.18 833.31l-512.05 1047.04 -334.09 -523.19 -725.04 0 0 669.03c0,142.07 115.21,257.28 257.29,257.28l2170.89 0c142.09,0 257.29,-115.21 257.29,-257.28l0 -669.03 -860.84 0 -253.45 -523.85z"/>
   </g>
  </g>
 </g>
</svg>
