<?xml version="1.0" encoding="UTF-8"?>
<!DOCTYPE svg PUBLIC "-//W3C//DTD SVG 1.1//EN" "http://www.w3.org/Graphics/SVG/1.1/DTD/svg11.dtd">
<!-- Creator: CorelDRAW 2020 (64-Bit) -->
<svg xmlns="http://www.w3.org/2000/svg" xml:space="preserve" width="114.162mm" height="114.162mm" version="1.1" style="shape-rendering:geometricPrecision; text-rendering:geometricPrecision; image-rendering:optimizeQuality; fill-rule:evenodd; clip-rule:evenodd"
viewBox="0 0 6674.58 6674.58"
 xmlns:xlink="http://www.w3.org/1999/xlink"
 xmlns:xodm="http://www.corel.com/coreldraw/odm/2003">
 <defs>
  <style type="text/css">
   <![CDATA[
    .str0 {stroke:#CCCCCC;stroke-width:742.52;stroke-miterlimit:22.9256}
    .str1 {stroke:#CCCCCC;stroke-width:321.76;stroke-linecap:round;stroke-linejoin:round;stroke-miterlimit:22.9256}
    .fil1 {fill:none}
    .fil0 {fill:white}
   ]]>
  </style>
 </defs>
 <g id="Capa_x0020_1">
  <metadata id="CorelCorpID_0Corel-Layer"/>
  <rect class="fil0 str0" x="371.26" y="371.26" width="5932.07" height="5932.07" rx="786.91" ry="786.91"/>
  <g id="_1658877626240">
   <g>
    <path class="fil0" d="M1701.73 4172.47l-99.71 900.09 900.06 -99.71 2570.47 -2571.83 0 -303.2 -495.8 -495.79 -303.2 0 -2571.83 2570.45zm2301.9 -2273.67l742.67 742.65 -742.67 -742.65zm0 0l0 0 0 0z"/>
    <path id="1" class="fil1 str1" d="M1701.73 4172.47l-99.71 900.09 900.06 -99.71 2570.47 -2571.83 0 -303.2 -495.8 -495.79 -303.2 0 -2571.83 2570.45zm2301.9 -2273.67l742.67 742.65m-742.67 -742.65l0 0 0 0z"/>
   </g>
   <g>
    <path class="fil0" d="M3846.92 2819.45l-1240.06 1240.06 1240.06 -1240.06zm0 0l0 0 0 0z"/>
    <path id="1" class="fil1 str1" d="M3846.92 2819.45l-1240.06 1240.06m1240.06 -1240.06l0 0 0 0z"/>
   </g>
  </g>
 </g>
</svg>
