<?xml version="1.0" encoding="UTF-8"?>
<!DOCTYPE svg PUBLIC "-//W3C//DTD SVG 1.1//EN" "http://www.w3.org/Graphics/SVG/1.1/DTD/svg11.dtd">
<!-- Creator: CorelDRAW 2020 (64-Bit) -->
<svg xmlns="http://www.w3.org/2000/svg" xml:space="preserve" width="661.458mm" height="562.442mm" version="1.1" style="shape-rendering:geometricPrecision; text-rendering:geometricPrecision; image-rendering:optimizeQuality; fill-rule:evenodd; clip-rule:evenodd"
viewBox="0 0 60301.39 51274.58"
 xmlns:xlink="http://www.w3.org/1999/xlink"
 xmlns:xodm="http://www.corel.com/coreldraw/odm/2003">
 <defs>
  <style type="text/css">
   <![CDATA[
    .fil0 {fill:#788596;fill-rule:nonzero}
   ]]>
  </style>
 </defs>
 <g id="Capa_x0020_1">
  <metadata id="CorelCorpID_0Corel-Layer"/>
  <g id="_2506218016288">
   <g id="_2579811340512">
    <g>
     <path class="fil0" d="M54524.02 0l-48746.64 0c-3190.36,0 -5777.36,2586.78 -5777.36,5777.36l0 20807.62 18411.05 0 4921.4 7703.76 11966.76 -24471.1 8111.98 16767.36 16890.19 0 0 -20807.62c0,-3190.59 -2586.78,-5777.36 -5777.36,-5777.36l-0.01 -0.01z"/>
     <path class="fil0" d="M35280.34 18711.71l-11497.91 23510.94 -7501.88 -11748.07 -16280.55 0 0 15022.85c0,3190.14 2587.01,5777.15 5777.36,5777.15l48746.64 0c3190.59,0 5777.36,-2587.01 5777.36,-5777.15l0 -15022.85 -19329.89 0 -5691.14 -11762.87 0.01 0z"/>
    </g>
   </g>
  </g>
 </g>
</svg>
