<?xml version="1.0" encoding="UTF-8"?>
<!DOCTYPE svg PUBLIC "-//W3C//DTD SVG 1.1//EN" "http://www.w3.org/Graphics/SVG/1.1/DTD/svg11.dtd">
<!-- Creator: CorelDRAW 2020 (64-Bit) -->
<svg xmlns="http://www.w3.org/2000/svg" xml:space="preserve" width="496.091mm" height="496.091mm" version="1.1" style="shape-rendering:geometricPrecision; text-rendering:geometricPrecision; image-rendering:optimizeQuality; fill-rule:evenodd; clip-rule:evenodd"
viewBox="0 0 60855.16 60855.16"
 xmlns:xlink="http://www.w3.org/1999/xlink"
 xmlns:xodm="http://www.corel.com/coreldraw/odm/2003">
 <defs>
  <style type="text/css">
   <![CDATA[
    .str0 {stroke:#788596;stroke-width:6761.61;stroke-linecap:round;stroke-linejoin:round;stroke-miterlimit:22.9256}
    .fil0 {fill:none}
   ]]>
  </style>
 </defs>
 <g id="Capa_x0020_1">
  <metadata id="CorelCorpID_0Corel-Layer"/>
  <g id="_2507301236000">
   <g id="_2348301413728">
    <path class="fil0 str0" d="M6761.45 3380.8l33808.71 0c1866.88,0 3380.96,1513.76 3380.96,3380.64l0 3380.96c0,1866.88 -1514.08,3380.96 -3380.96,3380.96l-33808.71 0c-1866.56,0 -3380.64,-1514.08 -3380.64,-3380.96l0 -3380.96c0,-1866.88 1514.08,-3380.64 3380.96,-3380.64l-0.32 0z"/>
    <path class="fil0 str0" d="M43951.12 57474.35l-20285.17 0 -13523.55 0c-3734.42,0 -6761.61,-3027.2 -6761.61,-6761.61l0 -25789.09c0,-811.08 291.78,-1595.55 822.12,-2209.62l7937.18 -9190.64 11525.86 0 11525.54 0 7937.18 9190.64c530.66,614.07 822.44,1398.54 822.44,2209.62l0 12265.55"/>
    <path class="fil0 str0" d="M16904.03 33808.54l6761.94 0m0 0l6761.61 0m-6761.61 0l0 -6761.61m0 6761.61l0 6761.61"/>
    <circle class="fil0 str0" cx="47331.77" cy="47331.77" r="10142.58"/>
    <line class="fil0 str0" x1="52403.07" y1="38548.46" x2="42260.48" y2= "56115.74" />
   </g>
  </g>
 </g>
</svg>
