<?xml version="1.0" encoding="UTF-8"?>
<!DOCTYPE svg PUBLIC "-//W3C//DTD SVG 1.1//EN" "http://www.w3.org/Graphics/SVG/1.1/DTD/svg11.dtd">
<!-- Creator: CorelDRAW 2020 (64-Bit) -->
<svg xmlns="http://www.w3.org/2000/svg" xml:space="preserve" width="661.458mm" height="552.592mm" version="1.1" style="shape-rendering:geometricPrecision; text-rendering:geometricPrecision; image-rendering:optimizeQuality; fill-rule:evenodd; clip-rule:evenodd"
viewBox="0 0 66145.86 55259.23"
 xmlns:xlink="http://www.w3.org/1999/xlink"
 xmlns:xodm="http://www.corel.com/coreldraw/odm/2003">
 <defs>
  <style type="text/css">
   <![CDATA[
    .fil0 {fill:#788596;fill-rule:nonzero}
   ]]>
  </style>
 </defs>
 <g id="Capa_x0020_1">
  <metadata id="CorelCorpID_0Corel-Layer"/>
  <g id="_2541794500864">
   <g id="_2579818314960">
    <g>
     <g>
      <path class="fil0" d="M35004.26 33693.34c-1364.45,-1930.75 -3556.01,-3110.05 -5905.76,-3199.4 -49.91,-5.63 -100.22,-8.85 -151.34,-8.85 -2988.89,0 -5458.58,-2258.78 -5795.46,-5158.32 860.53,-627.08 1654.64,-1422 2358.2,-2374.7 1423.21,-1926.73 2346.93,-4334.03 2689.44,-6937.34 105.05,-114.31 193.2,-247.13 256.79,-398.06 602.53,-1434.88 908.02,-2966.76 908.02,-4552.98 0,-6100.56 -4612.54,-11063.68 -10281.63,-11063.68 -1466.28,0 -2888.68,333.26 -4233.4,990.13 -502.71,42.66 -995.36,132.82 -1468.29,270.07 -4739.34,1369.28 -7418.32,7099.95 -5970.96,12774.27 145.3,570.73 330.45,1132.21 550.61,1668.73 59.97,146.51 143.69,275.3 242.7,387.6 545.78,4007.61 2442.72,7342.25 5037.18,9228.72 -333.67,2903.16 -2804.96,5165.97 -5796.68,5165.97 -45.88,0 -91.37,2.41 -136.44,6.84 -4053.49,143.29 -7307.23,3483.16 -7307.23,7571.26l0 8156.89c0,761.11 617.02,1378.13 1378.13,1378.13l24346.3 0c760.71,0 1377.73,-617.02 1377.73,-1378.13 0,-760.71 -617.02,-1377.73 -1377.73,-1377.73l-22968.57 0 0 -6779.56c0,-2659.26 2163.39,-4822.65 4822.65,-4822.65 45.88,0 91.37,-2.41 136.44,-6.84 992.54,-30.99 1942.83,-230.63 2823.88,-571.94l6523.58 9415.88c257.59,371.1 680.61,593.27 1133.01,593.27 452,0 875.02,-221.77 1132.61,-593.27l6523.58 -9415.88c881.05,341.31 1831.34,540.95 2823.87,571.94 45.08,4.43 90.56,6.84 136.44,6.84 1564.08,0 3037.6,763.93 3941.6,2043.45 268.46,379.55 694.3,582.4 1126.57,582.4 274.9,0 552.62,-82.11 794.12,-252.76 621.45,-439.12 769.16,-1298.84 330.04,-1920.29l0 -0.01zm-20858.7 -29786.36c361.44,-104.25 743.8,-166.23 1136.23,-183.94 202.45,-9.26 399.67,-62.79 579.19,-156.97 1023.94,-537.73 2107.44,-810.62 3221.14,-810.62 4065.57,0 7386.12,3577.75 7519.34,8030.91 -828.73,-626.68 -1859.51,-999.39 -2976.02,-999.39l-7206.21 0c-358.62,0 -699.53,-112.3 -984.9,-325.62 -244.31,-182.33 -433.08,-427.04 -545.78,-707.98 -260.41,-648.01 -904.4,-1052.51 -1599.9,-1008.64 -699.53,45.08 -1288.37,531.29 -1464.67,1209.49 -351.37,1350.36 -1007.84,2608.14 -1900.16,3675.95 -714.82,-3995.13 1085.12,-7816.78 4221.73,-8723.2l0.01 0.01zm-3231.6 11669.83c1203.45,-1103.63 2177.48,-2440.71 2857.69,-3917.45 4.43,3.62 9.26,7.24 14.09,10.46 765.54,571.54 1675.97,873.41 2633.5,873.41l7206.21 0c865.76,0 1613.19,506.33 1968.18,1237.26 -9.26,2862.52 -824.7,5536.27 -2300.64,7533.83 -1391.41,1883.26 -3201.82,2920.88 -5097.96,2920.88 -1754.86,0 -3463.44,-906.41 -4810.58,-2552.6 -1307.29,-1596.68 -2172.25,-3745.99 -2470.49,-6105.79zm7281.07 23296.6l-5273.04 -7611.11c1414.35,-1173.66 2445.94,-2792.49 2881.84,-4639.11 767.55,240.29 1568.51,367.88 2391.2,367.88 818.26,0 1619.63,-123.97 2392.41,-363.85 436.7,1844.61 1467.48,3461.82 2881.03,4635.08l-5273.44 7611.11z"/>
     </g>
    </g>
    <g>
     <g>
      <path class="fil0" d="M58839 38152.95c-44.68,-4.43 -90.16,-6.84 -136.04,-6.84 -2993.33,0 -5465.83,-2264.82 -5797.08,-5170.81 1687.24,-1228.81 3078.66,-3071.41 3995.93,-5312.07 131.21,429.45 467.29,775.99 909.23,913.24 134.43,41.46 272.08,61.98 408.13,61.98 417.38,0 821.48,-190.38 1087.13,-531.69 1922.7,-2468.87 2922.09,-5682.36 2814.62,-9048.8 -105.86,-3302.04 -1266.64,-6402.03 -3269.03,-8728.43 -2050.29,-2381.94 -4756.64,-3707.75 -7623.99,-3735.12 -152.14,-6.04 -530.08,6.84 -591.26,10.46 -1473.12,-668.14 -3029.55,-980.07 -4632.68,-929.35 -3310.49,105.86 -6355.74,1756.07 -8574.27,4646.36 -2155.74,2808.58 -3275.47,6472.06 -3152.71,10315.85 20.93,651.23 72.05,1250.94 155.36,1822.08 224.59,1637.74 675.78,3206.65 1341.1,4662.46 211.71,463.67 662.1,772.38 1170.44,802.57 506.74,30.99 992.54,-221.77 1258.19,-656.46 111.09,-181.12 253.57,-407.32 410.54,-628.69 614.6,1865.94 1553.62,3542.72 2745.8,4866.51 508.75,564.7 1058.15,1055.73 1636.53,1474.73 -334.07,2902.77 -2805.36,5164.77 -5796.28,5164.77 -46.29,0 -91.37,2.41 -136.44,6.84 -4053.49,143.69 -7306.83,3483.97 -7306.83,7571.67l0 8156.89c0,761.11 617.02,1378.13 1377.73,1378.13l33635.01 0c760.71,0 1377.73,-617.02 1377.73,-1377.73l0 -8157.29c0.4,-4087.3 -3253.34,-7427.58 -7306.83,-7571.26l-0.02 0zm-21359.01 -14447.42c-135.64,-530.89 -242.3,-1075.05 -318.77,-1631.3 -69.63,-478.96 -111.89,-977.65 -129.6,-1524.23 -102.23,-3209.06 815.45,-6245.46 2584.4,-8550.12 1706.56,-2222.96 4006.4,-3490.81 6476.09,-3569.7 82.91,-2.82 1858.71,-102.64 3671.93,811.02 202.86,102.23 436.3,149.32 663.71,142.88 26.16,-0.8 733.34,-34.21 753.87,-33.81 2069.61,13.68 4051.88,1000.19 5581.75,2777.19 1593.06,1851.06 2517.58,4343.69 2602.91,7019.05 46.29,1452.99 -157.78,2865.34 -590.05,4164.98 -130,-347.35 -275.3,-689.07 -435.09,-1024.74 -1330.64,-2830.72 -3570.1,-5023.09 -6306.23,-6173.81 -346.55,-146.1 -737.36,-143.69 -1082.3,6.04 -344.94,149.32 -613.8,433.08 -744.21,786.07 -183.13,495.47 -405.31,978.46 -660.89,1434.88 -721.26,1289.98 -2175.87,2057.54 -3793.08,2000.78 -242.7,-8.05 -489.03,-8.45 -732.13,-0.8 -1191.37,38.24 -2353.37,265.24 -3459.82,677.39 -1092.36,412.15 -2928.93,1446.96 -4082.47,2688.24l-0.02 -0.01zm3389.78 749.84c522.43,-350.17 1078.68,-638.35 1660.68,-858.11 819.47,-305.49 1687.65,-474.54 2579.97,-503.11 181.93,-6.04 366.67,-5.63 548.6,0.8 2660.47,90.96 5066.56,-1215.12 6293.76,-3410.31 75.67,-134.83 148.92,-272.08 219.76,-410.54 1256.98,774.39 2331.23,1865.55 3138.63,3190.15 -6.84,40.65 -12.88,81.71 -16.1,123.97 -211.31,2614.58 -1113.29,5013.83 -2539.72,6755.81 -1347.14,1646.19 -3055.71,2552.6 -4810.58,2552.6 -3244.08,-0.4 -6129.94,-3083.89 -7074.99,-7441.25l-0.01 -0.01zm4690.23 9826.41c775.6,242.3 1575.35,370.29 2384.76,370.29 824.7,0 1627.68,-128.39 2397.24,-369.89 553.43,2346.52 2070.82,4323.56 4110.64,5489.98 -795.73,2875 -3440.09,4942.59 -6501.44,4942.59 -3061.75,0 -5705.72,-2067.6 -6501.44,-4943 2039.42,-1166.02 3556.82,-3143.06 4110.24,-5489.98l0 0.01zm17830.37 18222l-30878.73 0 0 -6779.56c0,-2658.86 2163.39,-4822.65 4822.65,-4822.65 45.88,0 91.37,-2.41 136.44,-6.84 474.54,-14.89 939.82,-66.81 1392.22,-156.17 1196.61,3929.52 4859.28,6732.07 9088.25,6732.07 4228.98,0 7890.84,-2802.55 9088.25,-6731.67 452,88.95 917.28,141.27 1391.82,155.76 45.08,4.43 90.56,6.84 136.44,6.84 2659.26,0 4822.65,2163.39 4822.65,4822.65l0 6779.56 0.01 0.01z"/>
     </g>
    </g>
   </g>
  </g>
 </g>
</svg>
