<?xml version="1.0" encoding="UTF-8"?>
<!DOCTYPE svg PUBLIC "-//W3C//DTD SVG 1.1//EN" "http://www.w3.org/Graphics/SVG/1.1/DTD/svg11.dtd">
<!-- Creator: CorelDRAW 2020 (64-Bit) -->
<svg xmlns="http://www.w3.org/2000/svg" xml:space="preserve" width="519.304mm" height="661.458mm" version="1.1" style="shape-rendering:geometricPrecision; text-rendering:geometricPrecision; image-rendering:optimizeQuality; fill-rule:evenodd; clip-rule:evenodd"
viewBox="0 0 58219.8 74156.84"
 xmlns:xlink="http://www.w3.org/1999/xlink"
 xmlns:xodm="http://www.corel.com/coreldraw/odm/2003">
 <defs>
  <style type="text/css">
   <![CDATA[
    .fil0 {fill:#788596;fill-rule:nonzero}
   ]]>
  </style>
 </defs>
 <g id="Capa_x0020_1">
  <metadata id="CorelCorpID_0Corel-Layer"/>
  <g id="_2506216175472">
   <g id="_2348281408656">
    <g>
     <path class="fil0" d="M8043.1 59649.95c-758.07,842.01 -1323.95,1810.66 -1640.71,2790.58 -221.55,690.16 -328.03,1371.41 -328.03,2009.67 0,389.12 38.56,760.15 122.19,1111.01 63.47,260.4 149.19,509.24 264.56,737.9 86.3,174.1 190.41,339.29 312.31,488.77 183.58,221.85 409.59,414.04 679.18,547.49 266.93,136.14 574.78,208.5 887.09,206.13l0 -1414.42c-65.54,0 -115.37,-9.19 -163.12,-22.84 -83.63,-22.55 -151.55,-61.1 -228.37,-129.02 -54.27,-51.91 -113.3,-119.82 -167.57,-212.65 -81.56,-133.47 -158.38,-319.12 -210.28,-540.68 -52.2,-224.22 -81.56,-484.32 -81.56,-771.72 0,-477.5 83.63,-1020.85 260.11,-1577.54 165.2,-511.32 427.68,-1041.02 771.72,-1543.43 513.68,-756 1215.41,-1445.85 2025.39,-1939.38 402.76,-246.76 837.26,-445.76 1287.78,-581.9 452.59,-135.83 925.65,-208.2 1414.42,-208.2 651.89,0 1276.51,131.38 1860.48,366.58 873.45,348.49 1663.26,934.55 2294.68,1633.9 629.06,697.28 1097.67,1507.24 1342.05,2272.14 178.84,556.99 262.47,1100.03 262.47,1577.54 0,291.84 -31.74,556.69 -86.01,780.91 -38.56,167.27 -92.83,316.76 -151.55,434.5 -45.38,90.46 -92.83,162.83 -142.66,223.92 -72.37,88.38 -144.74,144.74 -214.73,181.22 -72.37,33.81 -147.1,54.27 -255.95,56.35l0 1414.72c185.67,2.07 368.96,-24.91 543.35,-72.66 305.48,-83.63 579.23,-242.01 803.15,-447.84 167.57,-154.22 307.86,-330.39 423.23,-522.89 176.77,-289.76 298.96,-610.97 378.15,-955.01 78.89,-344.04 117.74,-710.62 117.74,-1093.22 0,-637.96 -106.47,-1321.59 -328.32,-2009.37 -210.58,-654.27 -531.78,-1301.42 -948.18,-1910.31 -624.6,-912 -1457.71,-1740.37 -2457.81,-2351.04 -500.05,-303.41 -1041.02,-552.54 -1618.17,-724.26 -576.86,-176.77 -1188.12,-271.67 -1821.63,-271.67 -844.08,0 -1649.91,172.02 -2385.44,468.31 -1106.86,443.69 -2061.87,1158.76 -2819.94,1998.39l-0.01 -0.01z"/>
     <path class="fil0" d="M16015.92 65481.72c-230.75,183.58 -366.58,459.41 -366.58,756l0 1143.04c0,293.92 135.83,572.41 366.58,755.7 231.04,181.22 534.15,249.13 819.17,181.22l762.82 -181.22 0 -2656.82 -762.82 -180.91c-285.02,-67.92 -588.13,0 -819.17,183z"/>
     <path class="fil0" d="M9661.28 65298.72l-764.89 180.91 0 2656.82 764.89 181.22c285.31,67.92 588.43,0 819.17,-181.22 231.04,-183.29 366.58,-461.79 366.58,-755.7l0 -1143.04c0,-296.59 -135.83,-572.41 -366.58,-756 -230.75,-183.29 -533.85,-250.92 -819.17,-183z"/>
     <path class="fil0" d="M57708.47 62220.76c-292.14,-1090.55 -703.8,-2068.39 -1210.67,-2937.39 -889.46,-1527.41 -2066.31,-2715.54 -3365.06,-3657.2 -975.47,-705.87 -2016.49,-1283.03 -3075.59,-1778.62 -1586.44,-742.35 -3209.06,-1312.69 -4707.11,-1867.01 -1498.35,-552.25 -2867.39,-1093.22 -3933.32,-1722.27 -389.42,-231.04 -739.98,-470.68 -1043.09,-721.89 -452.59,-377.85 -805.82,-780.91 -1061.48,-1231.13 -255.66,-450.22 -427.68,-957.08 -493.22,-1590.89 -47.75,-452.59 -67.92,-878.19 -67.92,-1285.4 0,-1199.4 176.47,-2238.04 402.76,-3299.52 669.7,-756 1283.03,-1656.73 1862.27,-2733.63 581.9,-1084.02 1133.85,-2349.25 1683.72,-3847.31 353.23,-160.74 708.54,-353.23 1054.66,-588.43 792.18,-529.7 1543.43,-1272.06 2170.12,-2260.88 624.91,-988.82 1127.03,-2217.87 1471.07,-3734.02 94.9,-420.85 140.28,-839.63 140.28,-1251.6 2.38,-860.09 -201.39,-1679.27 -543.04,-2412.43 -237.56,-509.24 -538.6,-975.18 -889.46,-1398.41 178.84,-661.09 395.94,-1550.25 590.5,-2591.27 267.23,-1446.15 489.07,-3184.15 489.07,-5010.51 0,-1179.23 -92.83,-2396.71 -332.77,-3598.18 -178.84,-901.03 -443.69,-1794.93 -814.72,-2650.3 -559.06,-1287.78 -1371.41,-2498.44 -2500.81,-3498.53 -1045.47,-925.65 -2355.78,-1663.26 -3937.77,-2136.31 -558.77,-669.99 -1120.2,-1240.32 -1694.99,-1724.65 -497.96,-416.4 -1006.9,-766.97 -1527.72,-1054.36 -782.98,-434.5 -1592.96,-721.89 -2423.7,-896.28 -830.44,-174.39 -1676.89,-237.87 -2554.79,-237.87 -1210.96,0 -2485.09,120.12 -3892.69,258.03 -531.78,54.27 -977.54,120.12 -1364.59,188.03 -577.16,104.11 -1009.28,210.28 -1355.4,280.57 -174.39,33.81 -325.95,61.1 -475.43,79.18 -149.19,15.72 -293.92,27.29 -459.41,27.29 -221.55,0 -477.5,-18.09 -812.35,-65.54 -1025,-149.48 -1961.91,-380.22 -2697.45,-606.81 -366.58,-110.92 -683.63,-221.55 -932.46,-316.76 -124.57,-47.46 -233.11,-90.46 -319.12,-126.64 -88.09,-36.18 -153.93,-70.29 -192.19,-88.38l2.07 2.38c-113,-58.72 -221.55,-90.46 -318.83,-108.55 -97.58,-22.84 -183.29,-27.29 -258.03,-27.29 -156.31,0 -267.23,22.55 -355.31,45.38 -88.38,22.84 -156.31,49.82 -217.39,74.74 -117.74,47.46 -208.2,97.28 -298.66,151.55 -165.2,99.66 -323.58,210.58 -491.15,339.6 -292.14,226.3 -613.34,506.87 -955.01,837.26 -511.61,493.22 -1059.41,1090.84 -1557.08,1742.44 -249.13,323.58 -481.95,663.17 -692.53,1014.02 -210.28,350.56 -395.94,710.32 -543.04,1088.46 -719.81,1871.46 -1194.95,3596.1 -1489.16,5186.99 -296.59,1590.89 -409.59,3048.31 -409.59,4385.91 0,2188.21 305.48,4043.95 599.69,5612.29 0,74.74 2.38,144.74 6.82,219.47 9.19,147.4 24.91,298.96 40.93,457.33 24.91,235.2 51.91,477.5 72.37,680.96 11.27,102.02 20.46,192.48 27.29,262.78 2.07,33.81 4.45,65.54 4.45,88.09l2.07 22.55 0 6.82 0 2.38 0 133.47 287.4 1278.58c-414.04,452.88 -771.72,959.75 -1049.91,1516.45 -389.42,774.09 -620.17,1647.53 -620.17,2570.81 0,407.51 47.46,828.37 142.66,1246.84 226.3,1011.66 527.33,1894.3 887.09,2663.93 538.6,1156.39 1222.24,2054.75 1977.93,2729.18 586.05,524.96 1213.03,907.55 1832.9,1190.5 547.8,1498.05 1100.03,2760.92 1681.34,3844.94 579.52,1079.27 1190.5,1977.63 1860.48,2733.63 226.3,1061.48 402.76,2102.5 405.14,3301.89 0,407.51 -22.84,832.82 -70.29,1285.4 -45.38,434.5 -140.28,810.27 -278.19,1149.56 -206.13,507.16 -507.16,939.29 -916.74,1348.88 -409.59,403.06 -932.46,780.91 -1549.96,1131.77 -626.98,355.31 -1353.62,688.08 -2143.13,1004.83 -1385.36,561.14 -2964.67,1090.84 -4564.75,1731.17 -1199.4,477.5 -2414.81,1022.92 -3573.56,1704.18 -869,511.32 -1704.18,1104.49 -2473.53,1808.28 -1151.64,1054.36 -2145.2,2369.13 -2830.91,3994.12 -688.08,1627.07 -1070.67,3553.09 -1068.31,5829.69 0,321.5 67.92,626.98 178.84,909.62 101.73,264.85 244.39,507.16 411.66,737.9 317.05,430.05 724.26,814.72 1224.6,1186.05 877.9,647.15 2043.47,1253.67 3552.8,1824 2263.24,853.28 5295.84,1620.25 9217.59,2176.94 3919.67,556.69 8728.81,905.19 14522.02,905.19 5026.24,0 9308.05,-260.11 12913.05,-692.53 2702.19,-325.65 5026.24,-746.5 6997.65,-1228.76 1479.97,-359.75 2762.99,-755.7 3863.04,-1172.11 823.92,-312.31 1547.88,-638.25 2176.94,-973.39 470.68,-250.92 887.09,-509.24 1256.04,-773.79 552.25,-400.69 995.94,-812.35 1332.86,-1280.96 169.95,-233.11 307.86,-481.95 409.59,-753.62 102.02,-267.23 163.12,-561.44 163.12,-864.54 0,-1557.37 -178.55,-2949.25 -511.32,-4196.4l-0.02 0.04zm-18276.51 -10355.59l-7264.27 11344.7 -810.27 -5569.58 2061.57 -2181.68 -1335.23 -2226.76 5634.83 -2962.3c156.31,201.39 321.5,391.49 495.89,572.41 373.4,382.59 782.98,719.81 1217.48,1023.22l0.01 0zm-20883.79 -39241.86c6549.51,1452.97 19356.07,-1323.95 19356.07,-1323.95 0,0 138.21,3175.24 2321.97,6090.09 860.09,1145.11 1568.34,2935.3 2100.12,4637.12 -142.36,-264.85 -477.5,-364.51 -977.54,-427.68 -1122.58,-151.85 -2790.58,-249.13 -4668.55,-158.67 -5580.86,274.04 -5166.82,780.91 -7357.4,780.91 -2190.58,0 -1776.55,-506.87 -7357.4,-780.91 -1878.28,-90.46 -3545.98,6.82 -4670.93,158.67 -583.68,76.82 -950.56,194.56 -1034.19,583.68 -29.36,145.03 -74.74,307.86 -276.12,387.04 618.08,-2308.32 2337.99,-5256.98 2563.98,-9946.3zm22716.69 12935.88c0,31.74 -22.55,3231.6 -2199.78,4324.81 -739.98,373.4 -1667.7,579.23 -2611.44,581.61 -995.64,0 -1905.27,-226.59 -2631.9,-654.27 -803.46,-470.68 -1344.12,-1169.73 -1608.97,-2072.83 -63.47,-210.58 -119.82,-421.16 -178.84,-624.91 -172.02,-622.24 -635.88,-2351.04 348.49,-3111.49 633.81,-495.6 2600.46,-807.9 4485.57,-807.9 1713.08,0 3460.26,233.11 3971.58,767.27 337.22,352.94 468.31,981.99 425.3,1597.71l-0.01 0zm-14653.11 1554.7c-59.02,203.46 -117.74,414.04 -178.84,624.6 -264.85,902.81 -805.82,1602.45 -1606.9,2073.14 -728.71,427.68 -1638.34,653.97 -2634.27,653.97 -943.74,-2.38 -1869.08,-208.2 -2611.44,-581.61 -2176.94,-1093.22 -2197.4,-4293.08 -2199.78,-4324.81 -43.01,-615.41 88.09,-1244.77 423.23,-1597.71 513.68,-534.15 2260.88,-766.97 3973.96,-766.97 1883.02,0 3851.76,312.31 4487.64,807.9 982.3,760.15 518.44,2488.95 346.41,3111.49l-0.01 0.01zm-7271.39 11132.06c-567.97,-1059.1 -1133.85,-2376.24 -1715.46,-4019.33l-192.19 -536.23 -534.15 -196.93c-371.32,-135.83 -733.45,-312.01 -1079.57,-545.42 -522.58,-350.86 -1018.47,-830.44 -1473.14,-1545.51 -454.96,-715.37 -862.18,-1674.82 -1156.39,-2971.49 -56.65,-246.76 -79.18,-481.95 -79.18,-712.99 0,-520.51 124.26,-1013.73 361.84,-1484.41 194.86,-391.49 466.24,-760.45 796.63,-1095.58 556.99,842.01 1018.47,1509.62 1186.05,1676.89 319.12,319.12 477.5,11.27 502.41,-586.05 196.93,1328.4 828.37,3521.37 2867.39,4605.38 2935.3,1559.15 7316.47,975.18 8803.26,-2496.06 672.06,-1566.27 681.25,-3096.06 1694.99,-3096.06 1011.66,0 1022.92,1530.08 1694.99,3096.06 1489.16,3471.53 5870.32,4055.22 8805.63,2496.06 2932.94,-1559.44 2953.4,-5420.1 2953.4,-5691.78 0,-140.28 133.47,-246.47 323.58,-266.93 249.13,1047.84 377.85,1758.45 377.85,1758.45 0,0 280.87,-536.23 701.73,-1251.6 251.21,294.21 459.41,610.97 613.05,941.36 206.13,443.69 317.05,907.55 317.05,1389.8 0,232.82 -24.91,470.68 -81.56,715.07 -194.56,864.54 -441.31,1579.61 -717.44,2172.49 -416.4,887.09 -896.28,1498.35 -1398.41,1946.5 -500.34,448.14 -1034.49,739.98 -1588.81,945.81l-536.23 194.56 -190.41 538.9c-581.61,1642.79 -1149.56,2962.3 -1717.53,4019.04 -570.33,1059.1 -1135.92,1855.74 -1724.35,2475.9l-233.11 246.47 -72.37 328.32c-262.47,1210.67 -524.96,2548.26 -524.96,4132.33 0,488.77 24.91,998.01 79.18,1534.53 65.54,629.06 210.58,1219.86 425.6,1762.9 8.9,24.91 22.55,51.91 31.44,74.74l-7370.75 3876.67 -8169.46 -3790.67c250.92,-588.43 420.85,-1231.13 493.22,-1923.66 56.65,-536.23 79.18,-1045.47 79.18,-1534.24 2.38,-1584.37 -260.4,-2924.04 -524.96,-4134.7l-72.37 -328.32 -233.11 -244.39c-586.35,-624.91 -1154.31,-1416.79 -1722.56,-2475.9l0.03 0.03zm-65.55 13257.08c425.6,-341.67 817.1,-724.26 1163.21,-1154.31l6230.37 2892.31 -1330.78 2217.87 2059.19 2181.68 -760.15 5243.34 -7947.9 -10950.83c201.39,-138.21 398.32,-280.87 586.05,-430.05l0.01 -0.01zm36516.83 14904.32c-2.38,13.64 -18.09,59.02 -61.1,131.38 -81.56,140.28 -271.67,366.58 -592.88,624.6 -278.5,224.22 -654.27,475.13 -1127.03,733.45 -830.44,454.96 -1955.39,927.72 -3381.08,1375.86 -2140.76,674.44 -4967.52,1289.85 -8534.26,1737.99 -3566.45,443.69 -7872.87,719.81 -12987.49,719.81 -4938.16,0 -9124.76,-258.03 -12619.14,-676.8 -2620.63,-314.67 -4851.84,-721.89 -6712.04,-1174.48 -1398.7,-341.67 -2589.19,-710.62 -3578.01,-1086.39 -744.73,-280.57 -1375.86,-565.59 -1894.3,-844.08 -389.12,-208.2 -717.14,-414.04 -984.37,-604.14 -398.32,-285.31 -651.89,-545.42 -778.53,-724.26 -63.47,-86.01 -94.9,-153.93 -106.18,-185.67 -6.82,-13.64 -9.19,-22.55 -9.19,-26.99 0,-1358.07 153.93,-2520.98 420.85,-3530.56 233.11,-882.64 554.61,-1649.91 946.11,-2328.49 683.33,-1188.12 1581.7,-2120.59 2649.99,-2905.94 796.63,-590.8 1690.53,-1095.29 2636.35,-1545.81 1061.48,-504.49 2188.51,-938.99 3319.98,-1357.77l0 2444.17 848.54 0 848.83 0 0 -3070.85c1081.65,-405.14 2136.31,-821.54 3118.3,-1319.51l12557.73 17301.33 10971.31 -17129.31c34.1,51.91 67.92,104.11 99.66,153.93 457.33,735.53 776.17,1536.61 989.11,2444.17 210.28,905.19 307.86,1919.21 307.86,3048.31 0,2616.18 0,4895.15 0,6429.38l-3942.22 0.29 0 1699.44 9703.99 0 0 -1699.73 -3942.22 0.29c0,-1534.53 0,-3813.5 0,-6429.68 0,-1645.16 -187.74,-3143.21 -653.97,-4510.19 -40.93,-117.74 -83.94,-235.49 -129.02,-350.86 1326.04,522.89 2713.17,993.56 4057.59,1527.72 1151.94,454.96 2269.77,952.63 3286.17,1543.43 764.89,443.4 1473.14,941.36 2102.5,1506.95 943.74,857.73 1717.53,1869.39 2274.22,3166.05 554.32,1294.59 893.91,2887.86 893.91,4912.94l0 0 0.03 0z"/>
    </g>
   </g>
  </g>
 </g>
</svg>
