<?xml version="1.0" encoding="UTF-8"?>
<!DOCTYPE svg PUBLIC "-//W3C//DTD SVG 1.1//EN" "http://www.w3.org/Graphics/SVG/1.1/DTD/svg11.dtd">
<!-- Creator: CorelDRAW 2020 (64-Bit) -->
<svg xmlns="http://www.w3.org/2000/svg" xml:space="preserve" width="4213px" height="4212px" version="1.1" style="shape-rendering:geometricPrecision; text-rendering:geometricPrecision; image-rendering:optimizeQuality; fill-rule:evenodd; clip-rule:evenodd"
viewBox="0 0 4213 4213"
 xmlns:xlink="http://www.w3.org/1999/xlink"
 xmlns:xodm="http://www.corel.com/coreldraw/odm/2003">
 <defs>
  <style type="text/css">
   <![CDATA[
    .str0 {stroke:#CCCCCC;stroke-width:468.68;stroke-miterlimit:22.9256}
    .fil0 {fill:white}
    .fil2 {fill:#999999;fill-rule:nonzero}
    .fil1 {fill:#CCCCCC;fill-rule:nonzero}
   ]]>
  </style>
 </defs>
 <g id="Capa_x0020_1">
  <metadata id="CorelCorpID_0Corel-Layer"/>
  <path class="fil0 str0" d="M731.02 234.34l2750.96 0c274.25,0 496.68,222.43 496.68,496.72l0 2750.91c0,274.26 -222.43,496.69 -496.68,496.69l-2750.96 0c-274.25,0 -496.68,-222.43 -496.68,-496.69l0 -2750.91c0,-274.29 222.43,-496.72 496.72,-496.72l-0.04 0z"/>
  <g id="_2604511127008">
   <g>
    <path class="fil1" d="M1797.65 990.71c392.52,-392.55 1031.15,-392.55 1423.7,0 392.55,392.55 392.55,1031.25 0,1423.79 -392.55,392.52 -1031.18,392.52 -1423.7,0 -392.55,-392.54 -392.55,-1031.24 0,-1423.79zm139.77 1284c315.91,315.88 828.22,315.88 1144.16,-0.07 315.92,-315.91 315.92,-828.22 0,-1144.07 -315.94,-315.94 -828.19,-315.94 -1144.1,0 -315.91,315.91 -315.98,828.16 -0.06,1144.14z"/>
    <path class="fil1" d="M2955.32 1316.19c161.7,207.8 175.18,493.74 40.32,714.49 -10.35,17 -32.51,22.28 -49.45,12 -16.91,-10.41 -22.25,-32.5 -11.91,-49.44 119.36,-195.31 107.45,-449.18 -35.63,-632.8 -12.28,-15.62 -9.43,-38.22 6.26,-50.44 15.59,-12.19 38.19,-9.44 50.41,6.19l0 0z"/>
    <path class="fil1" d="M770.44 3162.62l730.64 -711.71c39.95,-38.94 103.77,-38.47 143.27,0.94l115.86 115.89c39.41,39.41 39.85,103.23 0.84,143.14l-711.68 730.62c-79.01,95.45 -195.77,101.11 -285.97,10.82 -90.32,-90.14 -88.35,-210.69 7.03,-289.69l0.01 -0.01z"/>
   </g>
  </g>
  <path class="fil2" d="M2107.63 2030.34c0,-43.2 -35.02,-78.23 -78.23,-78.23 -43.2,0 -78.23,35.03 -78.23,78.23l0 391.15c0,43.2 35.03,78.23 78.23,78.23l391.15 0c43.2,0 78.23,-35.03 78.23,-78.23 0,-43.21 -35.03,-78.23 -78.23,-78.23l-187.92 0 83.72 -75.58c1.25,-1.13 2.45,-2.29 3.61,-3.48 55.25,-48.61 119.51,-87.72 190.16,-114.71 69.22,-26.43 144.51,-40.92 223.35,-40.92 172.83,0 329.29,70.05 442.54,183.3 113.24,113.25 183.29,269.71 183.29,442.54 0,172.83 -70.05,329.29 -183.29,442.54 -113.25,113.24 -269.72,183.29 -442.54,183.29 -147.61,0 -283.18,-50.96 -390.07,-136.2 -109.18,-87.07 -188.57,-209.74 -220.46,-350.29 -9.45,-42.02 -51.18,-68.43 -93.2,-58.97 -42.03,9.45 -68.43,51.17 -58.98,93.2 39.96,176.11 139.15,329.58 275.46,438.29 133.75,106.67 303.12,170.43 487.25,170.43 216.01,0 411.59,-87.56 553.16,-229.13 141.57,-141.57 229.13,-337.15 229.13,-553.16 0,-216.02 -87.56,-411.59 -229.13,-553.16 -141.57,-141.57 -337.15,-229.14 -553.16,-229.14 -98.12,0 -192.17,18.16 -278.96,51.31 -87.74,33.51 -168.15,82.68 -237.89,144.16 -1.63,1.26 -3.23,2.58 -4.78,3.98l-104.21 94.07 0 -215.29z"/>
 </g>
</svg>
