<?xml version="1.0" encoding="UTF-8"?>
<!DOCTYPE svg PUBLIC "-//W3C//DTD SVG 1.1//EN" "http://www.w3.org/Graphics/SVG/1.1/DTD/svg11.dtd">
<!-- Creator: CorelDRAW 2020 (64-Bit) -->
<svg xmlns="http://www.w3.org/2000/svg" xml:space="preserve" width="114.162mm" height="114.162mm" version="1.1" style="shape-rendering:geometricPrecision; text-rendering:geometricPrecision; image-rendering:optimizeQuality; fill-rule:evenodd; clip-rule:evenodd"
viewBox="0 0 6674.58 6674.58"
 xmlns:xlink="http://www.w3.org/1999/xlink"
 xmlns:xodm="http://www.corel.com/coreldraw/odm/2003">
 <defs>
  <style type="text/css">
   <![CDATA[
    .str0 {stroke:#CCCCCC;stroke-width:742.52;stroke-miterlimit:22.9256}
    .str1 {stroke:#CCCCCC;stroke-width:371.26;stroke-linecap:round;stroke-linejoin:round;stroke-miterlimit:22.9256}
    .fil1 {fill:none}
    .fil0 {fill:white}
   ]]>
  </style>
 </defs>
 <g id="Capa_x0020_1">
  <metadata id="CorelCorpID_0Corel-Layer"/>
  <rect class="fil0 str0" x="371.26" y="371.26" width="5932.07" height="5932.07" rx="786.91" ry="786.91"/>
  <path class="fil1 str1" d="M4582.56 2092.03l-166.22 2493.2c-14.55,218.36 -21.83,327.55 -68.99,410.34 -41.53,72.89 -104.16,131.48 -179.65,168.07 -85.73,41.55 -195.17,41.55 -414.03,41.55l-832.75 0c-218.86,0 -328.29,0 -414.03,-41.55 -75.49,-36.59 -138.12,-95.18 -179.64,-168.07 -47.16,-82.79 -54.44,-191.98 -69,-410.34l-166.21 -2493.2m-415.08 0l3320.69 0m-830.17 0l-56.16 -168.51c-54.44,-163.3 -81.67,-244.95 -132.14,-305.31 -44.58,-53.31 -101.82,-94.57 -166.49,-120 -73.24,-28.8 -159.29,-28.8 -331.43,-28.8l-287.9 0c-172.14,0 -258.2,0 -331.43,28.8 -64.67,25.43 -121.91,66.69 -166.49,120 -50.49,60.37 -77.7,142.01 -132.13,305.31l-56.17 168.51m1245.26 830.17l0 1452.8m-830.17 -1452.8l-0.01 1452.76"/>
 </g>
</svg>
