<?xml version="1.0" encoding="UTF-8"?>
<!DOCTYPE svg PUBLIC "-//W3C//DTD SVG 1.1//EN" "http://www.w3.org/Graphics/SVG/1.1/DTD/svg11.dtd">
<!-- Creator: CorelDRAW 2020 (64-Bit) -->
<svg xmlns="http://www.w3.org/2000/svg" xml:space="preserve" width="1348px" height="1348px" version="1.1" style="shape-rendering:geometricPrecision; text-rendering:geometricPrecision; image-rendering:optimizeQuality; fill-rule:evenodd; clip-rule:evenodd"
viewBox="0 0 1348 1348"
 xmlns:xlink="http://www.w3.org/1999/xlink"
 xmlns:xodm="http://www.corel.com/coreldraw/odm/2003">
 <defs>
  <style type="text/css">
   <![CDATA[
    .str0 {stroke:#CCCCCC;stroke-width:149.96;stroke-miterlimit:22.9256}
    .fil0 {fill:white}
    .fil1 {fill:#CCCCCC;fill-rule:nonzero}
   ]]>
  </style>
 </defs>
 <g id="Capa_x0020_1">
  <metadata id="CorelCorpID_0Corel-Layer"/>
  <path class="fil0 str0" d="M233.9 74.98l880.2 0c87.75,0 158.92,71.17 158.92,158.93l0 880.19c0,87.75 -71.17,158.92 -158.92,158.92l-880.2 0c-87.75,0 -158.92,-71.17 -158.92,-158.92l0 -880.19c0,-87.76 71.17,-158.93 158.93,-158.93z"/>
  <g id="_2604511127008">
   <g>
    <path class="fil1" d="M575.18 316.99c125.59,-125.6 329.93,-125.6 455.53,0 125.6,125.6 125.6,329.96 0,455.56 -125.6,125.59 -329.94,125.59 -455.53,0 -125.6,-125.6 -125.6,-329.96 0,-455.56zm44.72 410.83c101.08,101.07 265,101.07 366.09,-0.02 101.08,-101.08 101.08,-265 0,-366.06 -101.09,-101.09 -264.99,-101.09 -366.07,0 -101.08,101.08 -101.1,264.98 -0.02,366.08z"/>
    <path class="fil1" d="M945.59 421.13c51.74,66.49 56.05,157.98 12.9,228.61 -3.31,5.44 -10.4,7.13 -15.82,3.84 -5.41,-3.33 -7.12,-10.4 -3.81,-15.82 38.19,-62.49 34.38,-143.72 -11.4,-202.47 -3.93,-5 -3.02,-12.23 2,-16.14 4.99,-3.9 12.22,-3.02 16.13,1.98z"/>
    <path class="fil1" d="M246.51 1011.92l233.78 -227.72c12.78,-12.46 33.2,-12.31 45.84,0.3l37.07 37.08c12.61,12.61 12.75,33.03 0.27,45.8l-227.71 233.77c-25.28,30.54 -62.64,32.35 -91.5,3.46 -28.9,-28.84 -28.27,-67.41 2.25,-92.69z"/>
   </g>
  </g>
 </g>
</svg>
