<?xml version="1.0" encoding="UTF-8"?>
<!DOCTYPE svg PUBLIC "-//W3C//DTD SVG 1.1//EN" "http://www.w3.org/Graphics/SVG/1.1/DTD/svg11.dtd">
<!-- Creator: CorelDRAW 2020 (64-Bit) -->
<svg xmlns="http://www.w3.org/2000/svg" xml:space="preserve" width="2500px" height="2089px" version="1.1" style="shape-rendering:geometricPrecision; text-rendering:geometricPrecision; image-rendering:optimizeQuality; fill-rule:evenodd; clip-rule:evenodd"
viewBox="0 0 1643.41 1372.93"
 xmlns:xlink="http://www.w3.org/1999/xlink"
 xmlns:xodm="http://www.corel.com/coreldraw/odm/2003">
 <defs>
  <style type="text/css">
   <![CDATA[
    .fil0 {fill:white;fill-rule:nonzero}
   ]]>
  </style>
 </defs>
 <g id="Capa_x0020_1">
  <metadata id="CorelCorpID_0Corel-Layer"/>
  <g id="_2579818314960">
   <g>
    <g>
     <path class="fil0" d="M869.69 837.12c-33.9,-47.97 -88.35,-77.27 -146.73,-79.49 -1.24,-0.14 -2.49,-0.22 -3.76,-0.22 -74.26,0 -135.62,-56.12 -143.99,-128.16 21.38,-15.58 41.11,-35.33 58.59,-59 35.36,-47.87 58.31,-107.68 66.82,-172.36 2.61,-2.84 4.8,-6.14 6.38,-9.89 14.97,-35.65 22.56,-73.71 22.56,-113.12 0,-151.57 -114.6,-274.88 -255.45,-274.88 -36.43,0 -71.77,8.28 -105.18,24.6 -12.49,1.06 -24.73,3.3 -36.48,6.71 -117.75,34.02 -184.31,176.4 -148.35,317.38 3.61,14.18 8.21,28.13 13.68,41.46 1.49,3.64 3.57,6.84 6.03,9.63 13.56,99.57 60.69,182.42 125.15,229.29 -8.29,72.13 -69.69,128.35 -144.02,128.35 -1.14,0 -2.27,0.06 -3.39,0.17 -100.71,3.56 -181.55,86.54 -181.55,188.11l0 202.66c0,18.91 15.33,34.24 34.24,34.24l604.89 0c18.9,0 34.23,-15.33 34.23,-34.24 0,-18.9 -15.33,-34.23 -34.23,-34.23l-570.66 0 0 -168.44c0,-66.07 53.75,-119.82 119.82,-119.82 1.14,0 2.27,-0.06 3.39,-0.17 24.66,-0.77 48.27,-5.73 70.16,-14.21l162.08 233.94c6.4,9.22 16.91,14.74 28.15,14.74 11.23,0 21.74,-5.51 28.14,-14.74l162.08 -233.94c21.89,8.48 45.5,13.44 70.16,14.21 1.12,0.11 2.25,0.17 3.39,0.17 38.86,0 75.47,18.98 97.93,50.77 6.67,9.43 17.25,14.47 27.99,14.47 6.83,0 13.73,-2.04 19.73,-6.28 15.44,-10.91 19.11,-32.27 8.2,-47.71zm-518.24 -740.05c8.98,-2.59 18.48,-4.13 28.23,-4.57 5.03,-0.23 9.93,-1.56 14.39,-3.9 25.44,-13.36 52.36,-20.14 80.03,-20.14 101.01,0 183.51,88.89 186.82,199.53 -20.59,-15.57 -46.2,-24.83 -73.94,-24.83l-179.04 0c-8.91,0 -17.38,-2.79 -24.47,-8.09 -6.07,-4.53 -10.76,-10.61 -13.56,-17.59 -6.47,-16.1 -22.47,-26.15 -39.75,-25.06 -17.38,1.12 -32.01,13.2 -36.39,30.05 -8.73,33.55 -25.04,64.8 -47.21,91.33 -17.76,-99.26 26.96,-194.21 104.89,-216.73zm-80.29 289.94c29.9,-27.42 54.1,-60.64 71,-97.33 0.11,0.09 0.23,0.18 0.35,0.26 19.02,14.2 41.64,21.7 65.43,21.7l179.04 0c21.51,0 40.08,12.58 48.9,30.74 -0.23,71.12 -20.49,137.55 -57.16,187.18 -34.57,46.79 -79.55,72.57 -126.66,72.57 -43.6,0 -86.05,-22.52 -119.52,-63.42 -32.48,-39.67 -53.97,-93.07 -61.38,-151.7zm180.9 578.81l-131.01 -189.1c35.14,-29.16 60.77,-69.38 71.6,-115.26 19.07,5.97 38.97,9.14 59.41,9.14 20.33,0 40.24,-3.08 59.44,-9.04 10.85,45.83 36.46,86.01 71.58,115.16l-131.02 189.1z"/>
    </g>
   </g>
   <g>
    <g>
     <path class="fil0" d="M1461.87 947.92c-1.11,-0.11 -2.24,-0.17 -3.38,-0.17 -74.37,0 -135.8,-56.27 -144.03,-128.47 41.92,-30.53 76.49,-76.31 99.28,-131.98 3.26,10.67 11.61,19.28 22.59,22.69 3.34,1.03 6.76,1.54 10.14,1.54 10.37,0 20.41,-4.73 27.01,-13.21 47.77,-61.34 72.6,-141.18 69.93,-224.82 -2.63,-82.04 -31.47,-159.06 -81.22,-216.86 -50.94,-59.18 -118.18,-92.12 -189.42,-92.8 -3.78,-0.15 -13.17,0.17 -14.69,0.26 -36.6,-16.6 -75.27,-24.35 -115.1,-23.09 -82.25,2.63 -157.91,43.63 -213.03,115.44 -53.56,69.78 -81.38,160.8 -78.33,256.3 0.52,16.18 1.79,31.08 3.86,45.27 5.58,40.69 16.79,79.67 33.32,115.84 5.26,11.52 16.45,19.19 29.08,19.94 12.59,0.77 24.66,-5.51 31.26,-16.31 2.76,-4.5 6.3,-10.12 10.2,-15.62 15.27,46.36 38.6,88.02 68.22,120.91 12.64,14.03 26.29,26.23 40.66,36.64 -8.3,72.12 -69.7,128.32 -144.01,128.32 -1.15,0 -2.27,0.06 -3.39,0.17 -100.71,3.57 -181.54,86.56 -181.54,188.12l0 202.66c0,18.91 15.33,34.24 34.23,34.24l835.67 0c18.9,0 34.23,-15.33 34.23,-34.23l0 -202.67c0.01,-101.55 -80.83,-184.54 -181.54,-188.11zm-530.67 -358.95c-3.37,-13.19 -6.02,-26.71 -7.92,-40.53 -1.73,-11.9 -2.78,-24.29 -3.22,-37.87 -2.54,-79.73 20.26,-155.17 64.21,-212.43 42.4,-55.23 99.54,-86.73 160.9,-88.69 2.06,-0.07 46.18,-2.55 91.23,20.15 5.04,2.54 10.84,3.71 16.49,3.55 0.65,-0.02 18.22,-0.85 18.73,-0.84 51.42,0.34 100.67,24.85 138.68,69 39.58,45.99 62.55,107.92 64.67,174.39 1.15,36.1 -3.92,71.19 -14.66,103.48 -3.23,-8.63 -6.84,-17.12 -10.81,-25.46 -33.06,-70.33 -88.7,-124.8 -156.68,-153.39 -8.61,-3.63 -18.32,-3.57 -26.89,0.15 -8.57,3.71 -15.25,10.76 -18.49,19.53 -4.55,12.31 -10.07,24.31 -16.42,35.65 -17.92,32.05 -54.06,51.12 -94.24,49.71 -6.03,-0.2 -12.15,-0.21 -18.19,-0.02 -29.6,0.95 -58.47,6.59 -85.96,16.83 -27.14,10.24 -72.77,35.95 -101.43,66.79zm84.22 18.63c12.98,-8.7 26.8,-15.86 41.26,-21.32 20.36,-7.59 41.93,-11.79 64.1,-12.5 4.52,-0.15 9.11,-0.14 13.63,0.02 66.1,2.26 125.88,-30.19 156.37,-84.73 1.88,-3.35 3.7,-6.76 5.46,-10.2 31.23,19.24 57.92,46.35 77.98,79.26 -0.17,1.01 -0.32,2.03 -0.4,3.08 -5.25,64.96 -27.66,124.57 -63.1,167.85 -33.47,40.9 -75.92,63.42 -119.52,63.42 -80.6,-0.01 -152.3,-76.62 -175.78,-184.88zm116.53 244.14c19.27,6.02 39.14,9.2 59.25,9.2 20.49,0 40.44,-3.19 59.56,-9.19 13.75,58.3 51.45,107.42 102.13,136.4 -19.77,71.43 -85.47,122.8 -161.53,122.8 -76.07,0 -141.76,-51.37 -161.53,-122.81 50.67,-28.97 88.37,-78.09 102.12,-136.4zm443 452.73l-767.19 0 0 -168.44c0,-66.06 53.75,-119.82 119.82,-119.82 1.14,0 2.27,-0.06 3.39,-0.17 11.79,-0.37 23.35,-1.66 34.59,-3.88 29.73,97.63 120.73,167.26 225.8,167.26 105.07,0 196.05,-69.63 225.8,-167.25 11.23,2.21 22.79,3.51 34.58,3.87 1.12,0.11 2.25,0.17 3.39,0.17 66.07,0 119.82,53.75 119.82,119.82l0 168.44z"/>
    </g>
   </g>
  </g>
 </g>
</svg>
